<svg xmlns="http://www.w3.org/2000/svg" xmlns:xlink="http://www.w3.org/1999/xlink" preserveAspectRatio="xMidYMid" width="148" height="22" viewBox="0 0 148 22">
  <defs>
    <style>
      .cls-1 {
        fill: #fff;
        fill-rule: evenodd;
      }
    </style>
  </defs>
  <path d="M147.784,11.381 L140.225,18.930 C140.090,19.064 139.941,19.131 139.778,19.131 C139.595,19.131 139.460,19.064 139.374,18.930 L137.499,17.104 C137.325,16.931 137.239,16.764 137.239,16.600 C137.239,16.447 137.301,16.299 137.426,16.155 L142.663,10.963 L137.426,5.743 C137.378,5.667 137.340,5.590 137.311,5.513 C137.282,5.437 137.268,5.365 137.268,5.298 C137.268,5.135 137.335,4.986 137.470,4.852 L139.302,3.026 C139.427,2.901 139.585,2.838 139.778,2.838 C139.912,2.838 140.061,2.891 140.225,2.997 L147.784,10.518 C147.928,10.662 148.000,10.810 148.000,10.963 C148.000,11.098 147.928,11.237 147.784,11.381 ZM136.691,1.294 C136.085,2.665 135.438,4.148 134.751,5.744 C134.063,7.340 133.359,8.973 132.637,10.641 C132.253,11.532 131.863,12.441 131.469,13.366 C131.075,14.291 130.683,15.204 130.293,16.106 C129.904,17.007 129.521,17.879 129.146,18.723 C128.771,19.566 128.420,20.353 128.093,21.081 C127.987,21.302 127.872,21.464 127.747,21.570 C127.622,21.675 127.454,21.728 127.242,21.728 L124.357,21.728 C123.905,21.728 123.679,21.570 123.679,21.254 C123.679,21.225 123.681,21.204 123.686,21.189 C123.691,21.175 123.703,21.144 123.722,21.095 L123.737,20.951 L123.737,20.908 L132.306,1.092 C132.411,0.872 132.544,0.696 132.702,0.567 C132.861,0.438 133.080,0.373 133.359,0.373 L135.970,0.373 C136.210,0.373 136.400,0.414 136.539,0.495 C136.679,0.577 136.749,0.718 136.749,0.920 C136.749,0.968 136.741,1.037 136.727,1.128 C136.712,1.219 136.700,1.275 136.691,1.294 ZM118.905,21.728 L116.135,21.728 C115.952,21.728 115.815,21.697 115.724,21.635 C115.632,21.573 115.558,21.455 115.500,21.282 L114.072,17.932 L104.927,17.932 L103.499,21.282 C103.412,21.580 103.234,21.728 102.965,21.728 L99.964,21.728 C99.724,21.728 99.558,21.683 99.467,21.591 C99.375,21.501 99.330,21.369 99.330,21.196 C99.330,21.177 100.051,19.475 101.493,16.091 C102.936,12.707 105.052,7.626 107.841,0.848 C107.908,0.714 107.999,0.601 108.115,0.510 C108.230,0.419 108.418,0.373 108.677,0.373 L110.351,0.373 C110.562,0.373 110.726,0.419 110.841,0.510 C110.956,0.601 111.048,0.714 111.115,0.848 L119.698,21.066 L119.698,21.153 C119.698,21.297 119.650,21.429 119.554,21.548 C119.458,21.669 119.241,21.728 118.905,21.728 ZM109.514,6.571 L106.441,14.006 L112.558,14.006 L109.514,6.571 ZM101.335,4.299 L96.098,4.299 L96.098,20.995 C96.098,21.072 96.079,21.151 96.041,21.232 C96.002,21.314 95.954,21.393 95.896,21.469 C95.839,21.546 95.769,21.608 95.687,21.657 C95.605,21.704 95.521,21.728 95.435,21.728 L92.550,21.728 C92.482,21.728 92.408,21.707 92.326,21.663 C92.244,21.620 92.167,21.565 92.095,21.498 C92.023,21.431 91.963,21.352 91.915,21.261 C91.867,21.170 91.843,21.081 91.843,20.995 L91.843,4.299 L86.606,4.299 C86.414,4.299 86.246,4.232 86.102,4.098 C85.957,3.964 85.885,3.777 85.885,3.537 L85.885,1.006 C85.885,0.834 85.957,0.685 86.102,0.560 C86.246,0.436 86.414,0.373 86.606,0.373 L101.335,0.373 C101.508,0.373 101.669,0.426 101.818,0.531 C101.967,0.637 102.051,0.795 102.070,1.006 L102.070,3.537 C102.070,3.748 102.008,3.928 101.883,4.076 C101.758,4.225 101.575,4.299 101.335,4.299 ZM75.838,7.685 C76.208,7.892 76.634,8.079 77.115,8.246 C77.596,8.414 78.101,8.575 78.629,8.728 C79.533,9.007 80.425,9.315 81.305,9.656 C82.185,9.996 82.972,10.411 83.664,10.900 C84.356,11.388 84.916,11.976 85.345,12.661 C85.772,13.347 85.986,14.174 85.986,15.142 C85.986,16.187 85.775,17.131 85.352,17.975 C84.928,18.819 84.344,19.540 83.599,20.139 C82.854,20.738 81.978,21.198 80.974,21.519 C79.969,21.841 78.889,22.001 77.735,22.001 C76.995,22.001 76.259,21.915 75.528,21.743 C74.797,21.570 74.095,21.325 73.422,21.009 C72.749,20.693 72.112,20.312 71.511,19.866 C70.909,19.420 70.373,18.919 69.902,18.363 L69.902,18.377 L69.873,18.320 C69.662,18.081 69.556,17.859 69.556,17.658 C69.556,17.467 69.671,17.261 69.902,17.040 L70.104,16.824 L70.378,16.566 C70.522,16.441 70.676,16.302 70.840,16.149 C71.003,15.995 71.167,15.856 71.330,15.731 C71.494,15.607 71.645,15.501 71.785,15.415 C71.924,15.329 72.037,15.286 72.124,15.286 C72.258,15.286 72.383,15.329 72.499,15.415 C72.614,15.501 72.710,15.583 72.787,15.660 L72.845,15.717 L72.831,15.717 C73.167,16.034 73.545,16.336 73.963,16.623 C74.381,16.911 74.812,17.167 75.254,17.392 C75.696,17.618 76.136,17.795 76.574,17.925 C77.011,18.054 77.422,18.119 77.807,18.119 C78.336,18.119 78.831,18.052 79.293,17.917 C79.755,17.783 80.154,17.594 80.490,17.349 C80.827,17.105 81.091,16.810 81.284,16.465 C81.476,16.120 81.572,15.737 81.572,15.314 C81.572,14.893 81.447,14.531 81.197,14.229 C80.947,13.927 80.620,13.663 80.216,13.438 C79.812,13.213 79.358,13.018 78.853,12.855 C78.348,12.693 77.841,12.539 77.331,12.395 C76.158,12.041 75.131,11.657 74.251,11.244 C73.372,10.833 72.638,10.370 72.052,9.857 C71.465,9.344 71.025,8.769 70.732,8.131 C70.438,7.494 70.292,6.777 70.292,5.982 C70.292,5.090 70.472,4.277 70.833,3.544 C71.193,2.811 71.705,2.183 72.369,1.660 C73.033,1.138 73.831,0.730 74.764,0.438 C75.696,0.146 76.740,-0.001 77.894,-0.001 C78.769,-0.001 79.658,0.136 80.563,0.409 C81.466,0.682 82.303,1.059 83.073,1.538 C83.303,1.682 83.539,1.845 83.779,2.027 C84.020,2.210 84.241,2.394 84.443,2.581 C84.645,2.768 84.811,2.950 84.941,3.127 C85.070,3.305 85.135,3.456 85.135,3.580 C85.135,3.705 85.107,3.822 85.049,3.932 C84.991,4.043 84.919,4.151 84.832,4.256 L84.400,4.716 L84.400,4.702 C84.255,4.855 84.106,5.013 83.952,5.176 C83.798,5.339 83.645,5.486 83.491,5.615 C83.337,5.744 83.197,5.852 83.073,5.939 C82.947,6.025 82.842,6.068 82.755,6.068 C82.630,6.068 82.515,6.037 82.409,5.975 C82.303,5.912 82.183,5.828 82.048,5.722 L82.019,5.708 C81.837,5.526 81.601,5.325 81.313,5.104 C81.024,4.884 80.702,4.678 80.346,4.486 C79.990,4.295 79.608,4.132 79.199,3.997 C78.790,3.863 78.375,3.796 77.952,3.796 C77.413,3.796 76.937,3.856 76.523,3.976 C76.110,4.096 75.764,4.258 75.485,4.465 C75.206,4.671 74.994,4.913 74.850,5.191 C74.706,5.469 74.634,5.766 74.634,6.082 C74.634,6.428 74.742,6.729 74.958,6.988 C75.175,7.247 75.468,7.479 75.838,7.685 ZM68.547,21.728 L65.099,21.728 C64.839,21.728 64.656,21.580 64.551,21.282 L61.348,14.264 L56.905,14.264 L56.905,21.124 C56.905,21.527 56.694,21.728 56.271,21.728 L53.285,21.728 C53.111,21.728 52.962,21.680 52.837,21.584 C52.712,21.488 52.650,21.335 52.650,21.124 L52.650,1.063 C52.650,0.603 52.861,0.373 53.285,0.373 L61.983,0.373 C62.973,0.373 63.894,0.558 64.745,0.927 C65.597,1.296 66.334,1.797 66.960,2.430 C67.585,3.062 68.075,3.803 68.431,4.651 C68.787,5.500 68.965,6.403 68.965,7.362 C68.965,8.014 68.881,8.637 68.712,9.232 C68.544,9.826 68.308,10.380 68.006,10.892 C67.703,11.406 67.335,11.873 66.902,12.294 C66.469,12.717 65.993,13.076 65.474,13.373 L69.152,21.066 C69.152,21.086 69.157,21.107 69.167,21.132 C69.176,21.155 69.181,21.177 69.181,21.196 C69.181,21.369 69.136,21.501 69.044,21.591 C68.953,21.683 68.787,21.728 68.547,21.728 ZM64.637,6.247 C64.493,5.888 64.289,5.565 64.024,5.277 C63.760,4.990 63.442,4.755 63.072,4.572 C62.702,4.390 62.291,4.299 61.839,4.299 L56.905,4.299 L56.905,10.368 L61.940,10.368 C62.401,10.368 62.815,10.286 63.180,10.123 C63.546,9.960 63.851,9.737 64.096,9.454 C64.342,9.172 64.529,8.848 64.659,8.484 C64.789,8.119 64.854,7.736 64.854,7.333 C64.854,6.969 64.782,6.607 64.637,6.247 ZM50.486,21.728 L36.205,21.728 C36.032,21.728 35.883,21.680 35.758,21.584 C35.633,21.488 35.570,21.335 35.570,21.124 L35.570,1.063 C35.570,0.603 35.782,0.373 36.205,0.373 L50.111,0.373 C50.361,0.373 50.539,0.443 50.645,0.582 C50.750,0.721 50.803,0.896 50.803,1.107 L50.803,3.637 C50.803,3.810 50.743,3.964 50.623,4.098 C50.503,4.232 50.322,4.299 50.082,4.299 L39.826,4.299 L39.826,8.671 L47.731,8.671 C47.923,8.652 48.077,8.692 48.192,8.793 C48.308,8.894 48.366,9.064 48.366,9.303 L48.366,11.906 C48.366,12.079 48.317,12.233 48.221,12.366 C48.125,12.501 47.971,12.568 47.760,12.568 L39.826,12.568 L39.826,17.802 L50.457,17.802 C50.726,17.802 50.904,17.859 50.991,17.975 C51.077,18.090 51.121,18.267 51.121,18.507 L51.121,21.124 C51.121,21.527 50.909,21.728 50.486,21.728 ZM34.402,1.294 L26.512,20.736 C26.473,20.832 26.427,20.937 26.374,21.052 C26.322,21.167 26.254,21.275 26.172,21.376 C26.091,21.476 25.992,21.560 25.877,21.628 C25.761,21.694 25.627,21.728 25.473,21.728 L23.583,21.728 C23.410,21.728 23.263,21.687 23.143,21.606 C23.023,21.525 22.917,21.419 22.826,21.290 C22.734,21.161 22.653,21.009 22.581,20.836 C22.509,20.664 22.439,20.487 22.371,20.304 C21.429,17.937 20.595,15.851 19.869,14.049 C19.142,12.247 18.510,10.674 17.972,9.332 C17.433,7.990 16.979,6.856 16.609,5.932 C16.238,5.006 15.931,4.239 15.685,3.630 C15.440,3.022 15.250,2.547 15.115,2.207 C14.981,1.866 14.882,1.608 14.820,1.430 C14.757,1.253 14.719,1.138 14.704,1.085 C14.690,1.033 14.683,0.987 14.683,0.949 C14.683,0.565 14.923,0.373 15.404,0.373 L18.332,0.373 C18.784,0.373 19.078,0.594 19.212,1.035 L24.550,15.400 C24.944,14.347 25.365,13.220 25.812,12.022 C26.259,10.823 26.711,9.606 27.168,8.369 C27.624,7.132 28.084,5.898 28.545,4.666 C29.007,3.434 29.449,2.248 29.873,1.107 C29.969,0.925 30.103,0.757 30.276,0.603 C30.450,0.450 30.637,0.373 30.839,0.373 L33.681,0.373 C33.931,0.373 34.121,0.429 34.251,0.539 C34.381,0.649 34.445,0.800 34.445,0.992 C34.445,1.030 34.438,1.085 34.424,1.157 C34.409,1.229 34.402,1.275 34.402,1.294 ZM10.687,15.810 C10.716,15.886 10.731,15.958 10.731,16.025 C10.731,16.208 10.653,16.375 10.500,16.529 L8.624,18.355 C8.509,18.489 8.374,18.556 8.221,18.556 C8.057,18.556 7.908,18.489 7.773,18.355 L0.215,10.806 C0.070,10.662 -0.002,10.523 -0.002,10.388 C-0.002,10.235 0.070,10.086 0.215,9.942 L7.773,2.421 C7.879,2.316 8.028,2.263 8.221,2.263 C8.384,2.263 8.543,2.326 8.697,2.450 L10.529,4.277 C10.663,4.411 10.731,4.560 10.731,4.722 C10.731,4.789 10.716,4.861 10.687,4.938 C10.658,5.015 10.620,5.092 10.572,5.168 L5.335,10.388 L10.572,15.579 C10.620,15.656 10.658,15.733 10.687,15.810 Z" class="cls-1"/>
</svg>
