<svg xmlns="http://www.w3.org/2000/svg"><symbol id="icon_logo" viewBox="0 0 148 22" preserveAspectRatio="xMidYMid"><path d="M147.784 11.381l-7.559 7.549a.623.623 0 0 1-.447.201c-.183 0-.318-.067-.404-.201l-1.875-1.826c-.174-.173-.26-.34-.26-.504 0-.153.062-.301.187-.445l5.237-5.192-5.237-5.22a1.266 1.266 0 0 1-.115-.23.604.604 0 0 1-.043-.215c0-.163.067-.312.202-.446l1.832-1.826a.644.644 0 0 1 .476-.188c.134 0 .283.053.447.159l7.559 7.521c.144.144.216.292.216.445 0 .135-.072.274-.216.418zM136.691 1.294a500.752 500.752 0 0 0-1.94 4.45c-.688 1.596-1.392 3.229-2.114 4.897-.384.891-.774 1.8-1.168 2.725-.394.925-.786 1.838-1.176 2.74-.389.901-.772 1.773-1.147 2.617-.375.843-.726 1.63-1.053 2.358a1.46 1.46 0 0 1-.346.489c-.125.105-.293.158-.505.158h-2.885c-.452 0-.678-.158-.678-.474 0-.029.002-.05.007-.065l.036-.094.015-.144v-.043l8.569-19.816a1.5 1.5 0 0 1 .396-.525c.159-.129.378-.194.657-.194h2.611c.24 0 .43.041.569.122.14.082.21.223.21.425 0 .048-.008.117-.022.208a.923.923 0 0 1-.036.166zm-17.786 20.434h-2.77c-.183 0-.32-.031-.411-.093-.092-.062-.166-.18-.224-.353l-1.428-3.35h-9.145l-1.428 3.35c-.087.298-.265.446-.534.446h-3.001c-.24 0-.406-.045-.497-.137-.092-.09-.137-.222-.137-.395 0-.019.721-1.721 2.163-5.105 1.443-3.384 3.559-8.465 6.348-15.243a.98.98 0 0 1 .274-.338c.115-.091.303-.137.562-.137h1.674c.211 0 .375.046.49.137a.992.992 0 0 1 .274.338l8.583 20.218v.087a.615.615 0 0 1-.144.395c-.096.121-.313.18-.649.18zm-9.391-15.157l-3.073 7.435h6.117l-3.044-7.435zm-8.179-2.272h-5.237v16.696a.556.556 0 0 1-.057.237 1.334 1.334 0 0 1-.145.237.709.709 0 0 1-.209.188.502.502 0 0 1-.252.071H92.55a.477.477 0 0 1-.224-.065 1.064 1.064 0 0 1-.231-.165.884.884 0 0 1-.18-.237.57.57 0 0 1-.072-.266V4.299h-5.237a.717.717 0 0 1-.504-.201c-.145-.134-.217-.321-.217-.561V1.006c0-.172.072-.321.217-.446a.75.75 0 0 1 .504-.187h14.729c.173 0 .334.053.483.158.149.106.233.264.252.475v2.531a.808.808 0 0 1-.187.539c-.125.149-.308.223-.548.223zM75.838 7.685c.37.207.796.394 1.277.561.481.168.986.329 1.514.482a40.26 40.26 0 0 1 2.676.928c.88.34 1.667.755 2.359 1.244a6.116 6.116 0 0 1 1.681 1.761c.427.686.641 1.513.641 2.481 0 1.045-.211 1.989-.634 2.833a6.48 6.48 0 0 1-1.753 2.164c-.745.599-1.621 1.059-2.625 1.38a10.558 10.558 0 0 1-3.239.482c-.74 0-1.476-.086-2.207-.258a10.787 10.787 0 0 1-2.106-.734 11.156 11.156 0 0 1-1.911-1.143 9.548 9.548 0 0 1-1.609-1.503v.014l-.029-.057c-.211-.239-.317-.461-.317-.662 0-.191.115-.397.346-.618l.202-.216.274-.258c.144-.125.298-.264.462-.417a6.268 6.268 0 0 1 .945-.734c.139-.086.252-.129.339-.129.134 0 .259.043.375.129.115.086.211.168.288.245l.058.057h-.014c.336.317.714.619 1.132.906.418.288.849.544 1.291.769.442.226.882.403 1.32.533.437.129.848.194 1.233.194.529 0 1.024-.067 1.486-.202a3.816 3.816 0 0 0 1.197-.568c.337-.244.601-.539.794-.884.192-.345.288-.728.288-1.151 0-.421-.125-.783-.375-1.085a3.403 3.403 0 0 0-.981-.791 7.583 7.583 0 0 0-1.363-.583 45.123 45.123 0 0 0-1.522-.46c-1.173-.354-2.2-.738-3.08-1.151-.879-.411-1.613-.874-2.199-1.387-.587-.513-1.027-1.088-1.32-1.726-.294-.637-.44-1.354-.44-2.149 0-.892.18-1.705.541-2.438a5.416 5.416 0 0 1 1.536-1.884c.664-.522 1.462-.93 2.395-1.222.932-.292 1.976-.439 3.13-.439.875 0 1.764.137 2.669.41.903.273 1.74.65 2.51 1.129a9.623 9.623 0 0 1 1.37 1.043c.202.187.368.369.498.546.129.178.194.329.194.453a.742.742 0 0 1-.086.352c-.058.111-.13.219-.217.324l-.432.46v-.014l-.448.474a5.487 5.487 0 0 1-.879.763c-.126.086-.231.129-.318.129a.672.672 0 0 1-.346-.093 3.468 3.468 0 0 1-.361-.253l-.029-.014a7.28 7.28 0 0 0-.706-.604 7.18 7.18 0 0 0-2.114-1.107 3.978 3.978 0 0 0-1.247-.201c-.539 0-1.015.06-1.429.18-.413.12-.759.282-1.038.489a2.107 2.107 0 0 0-.635.726 1.91 1.91 0 0 0-.216.891c0 .346.108.647.324.906.217.259.51.491.88.697zm-7.291 14.043h-3.448c-.26 0-.443-.148-.548-.446l-3.203-7.018h-4.443v6.86c0 .403-.211.604-.634.604h-2.986a.713.713 0 0 1-.448-.144c-.125-.096-.187-.249-.187-.46V1.063c0-.46.211-.69.635-.69h8.698c.99 0 1.911.185 2.762.554A6.98 6.98 0 0 1 66.96 2.43a6.95 6.95 0 0 1 1.471 2.221c.356.849.534 1.752.534 2.711a6.81 6.81 0 0 1-.253 1.87 7.008 7.008 0 0 1-.706 1.66 6.678 6.678 0 0 1-1.104 1.402 7.036 7.036 0 0 1-1.428 1.079l3.678 7.693c0 .02.005.041.015.066a.18.18 0 0 1 .014.064c0 .173-.045.305-.137.395-.091.092-.257.137-.497.137zm-3.91-15.481a3.156 3.156 0 0 0-1.565-1.675 2.755 2.755 0 0 0-1.233-.273h-4.934v6.069h5.035c.461 0 .875-.082 1.24-.245a2.58 2.58 0 0 0 .916-.669 2.99 2.99 0 0 0 .563-.97c.13-.365.195-.748.195-1.151 0-.364-.072-.726-.217-1.086zM50.486 21.728H36.205a.712.712 0 0 1-.447-.144c-.125-.096-.188-.249-.188-.46V1.063c0-.46.212-.69.635-.69h13.906c.25 0 .428.07.534.209a.847.847 0 0 1 .158.525v2.53c0 .173-.06.327-.18.461s-.301.201-.541.201H39.826v4.372h7.905c.192-.019.346.021.461.122.116.101.174.271.174.51v2.603a.768.768 0 0 1-.145.46c-.096.135-.25.202-.461.202h-7.934v5.234h10.631c.269 0 .447.057.534.173.086.115.13.292.13.532v2.617c0 .403-.212.604-.635.604zM34.402 1.294l-7.89 19.442a7.566 7.566 0 0 1-.138.316c-.052.115-.12.223-.202.324-.081.1-.18.184-.295.252a.801.801 0 0 1-.404.1h-1.89a.77.77 0 0 1-.44-.122 1.236 1.236 0 0 1-.317-.316 2.308 2.308 0 0 1-.245-.454 14.052 14.052 0 0 1-.21-.532c-.942-2.367-1.776-4.453-2.502-6.255-.727-1.802-1.359-3.375-1.897-4.717l-1.363-3.4c-.371-.926-.678-1.693-.924-2.302a312.09 312.09 0 0 1-.57-1.423 23.724 23.724 0 0 1-.295-.777 6.835 6.835 0 0 1-.116-.345.538.538 0 0 1-.021-.136c0-.384.24-.576.721-.576h2.928c.452 0 .746.221.88.662L24.55 15.4l1.262-3.378c.447-1.199.899-2.416 1.356-3.653.456-1.237.916-2.471 1.377-3.703.462-1.232.904-2.418 1.328-3.559.096-.182.23-.35.403-.504a.837.837 0 0 1 .563-.23h2.842c.25 0 .44.056.57.166.13.11.194.261.194.453a.938.938 0 0 1-.021.165.916.916 0 0 0-.022.137zM10.687 15.81a.607.607 0 0 1 .044.215c0 .183-.078.35-.231.504l-1.876 1.826a.519.519 0 0 1-.403.201.623.623 0 0 1-.448-.201L.215 10.806c-.145-.144-.217-.283-.217-.418 0-.153.072-.302.217-.446l7.558-7.521c.106-.105.255-.158.448-.158.163 0 .322.063.476.187l1.832 1.827a.62.62 0 0 1 .202.445.616.616 0 0 1-.044.216 1.266 1.266 0 0 1-.115.23l-5.237 5.22 5.237 5.191c.048.077.086.154.115.231z" class="cls-1"/></symbol></svg>